solid OpenSCAD_Model
  facet normal 1 0 0
    outer loop
      vertex 20.01 29.5 7.5
      vertex 20.01 26.65 4.64999
      vertex 20.01 29.5 0
    endloop
  endfacet
  facet normal 1 0 0
    outer loop
      vertex 20.01 29.5 7.5
      vertex 20.01 13.35 4.64999
      vertex 20.01 26.65 4.64999
    endloop
  endfacet
  facet normal 1 0 -0
    outer loop
      vertex 20.01 13.35 4.64999
      vertex 20.01 29.5 7.5
      vertex 20.01 10.5 7.5
    endloop
  endfacet
  facet normal 1 0 0
    outer loop
      vertex 20.01 29.5 0
      vertex 20.01 26.65 4.64999
      vertex 20.01 24.9547 0
    endloop
  endfacet
  facet normal 1 0 0
    outer loop
      vertex 20.01 10.5 0
      vertex 20.01 13.35 4.64999
      vertex 20.01 10.5 7.5
    endloop
  endfacet
  facet normal 1 0 0
    outer loop
      vertex 20.01 13.35 4.64999
      vertex 20.01 10.5 0
      vertex 20.01 15.0453 0
    endloop
  endfacet
  facet normal -0 0 1
    outer loop
      vertex -0.00999928 29.5 7.5
      vertex 20.01 10.5 7.5
      vertex 20.01 29.5 7.5
    endloop
  endfacet
  facet normal 0 0 1
    outer loop
      vertex 20.01 10.5 7.5
      vertex -0.00999928 29.5 7.5
      vertex -0.00999928 10.5 7.5
    endloop
  endfacet
  facet normal 0 0 -1
    outer loop
      vertex -0.00999928 24.9547 0
      vertex 20.01 29.5 0
      vertex 20.01 24.9547 0
    endloop
  endfacet
  facet normal -0 0 -1
    outer loop
      vertex 20.01 29.5 0
      vertex -0.00999928 24.9547 0
      vertex -0.00999928 29.5 0
    endloop
  endfacet
  facet normal 0 0 -1
    outer loop
      vertex -0.00999928 10.5 0
      vertex 20.01 15.0453 0
      vertex 20.01 10.5 0
    endloop
  endfacet
  facet normal -0 0 -1
    outer loop
      vertex 20.01 15.0453 0
      vertex -0.00999928 10.5 0
      vertex -0.00999928 15.0453 0
    endloop
  endfacet
  facet normal -1 0 0
    outer loop
      vertex -0.00999928 15.0453 0
      vertex -0.00999928 10.5 0
      vertex -0.00999928 13.35 4.64999
    endloop
  endfacet
  facet normal -1 0 0
    outer loop
      vertex -0.00999928 29.5 0
      vertex -0.00999928 26.65 4.64999
      vertex -0.00999928 29.5 7.5
    endloop
  endfacet
  facet normal -1 0 -0
    outer loop
      vertex -0.00999928 26.65 4.64999
      vertex -0.00999928 29.5 0
      vertex -0.00999928 24.9547 0
    endloop
  endfacet
  facet normal -1 0 0
    outer loop
      vertex -0.00999928 13.35 4.64999
      vertex -0.00999928 29.5 7.5
      vertex -0.00999928 26.65 4.64999
    endloop
  endfacet
  facet normal -1 0 0
    outer loop
      vertex -0.00999928 13.35 4.64999
      vertex -0.00999928 10.5 7.5
      vertex -0.00999928 29.5 7.5
    endloop
  endfacet
  facet normal -1 0 0
    outer loop
      vertex -0.00999928 10.5 7.5
      vertex -0.00999928 13.35 4.64999
      vertex -0.00999928 10.5 0
    endloop
  endfacet
  facet normal 0 1 -0
    outer loop
      vertex 20.01 29.5 0
      vertex -0.00999928 29.5 7.5
      vertex 20.01 29.5 7.5
    endloop
  endfacet
  facet normal 0 1 0
    outer loop
      vertex -0.00999928 29.5 7.5
      vertex 20.01 29.5 0
      vertex -0.00999928 29.5 0
    endloop
  endfacet
  facet normal 0 -1 0
    outer loop
      vertex -0.00999928 10.5 0
      vertex 20.01 10.5 7.5
      vertex -0.00999928 10.5 7.5
    endloop
  endfacet
  facet normal 0 -1 -0
    outer loop
      vertex 20.01 10.5 7.5
      vertex -0.00999928 10.5 0
      vertex 20.01 10.5 0
    endloop
  endfacet
  facet normal 0 -0.939508 0.342527
    outer loop
      vertex -0.00999928 24.9547 0
      vertex 20.01 26.65 4.64999
      vertex -0.00999928 26.65 4.64999
    endloop
  endfacet
  facet normal 0 -0.939508 0.342527
    outer loop
      vertex 20.01 26.65 4.64999
      vertex -0.00999928 24.9547 0
      vertex 20.01 24.9547 0
    endloop
  endfacet
  facet normal 0 0 -1
    outer loop
      vertex -0.00999928 13.35 4.64999
      vertex 20.01 26.65 4.64999
      vertex 20.01 13.35 4.64999
    endloop
  endfacet
  facet normal -0 0 -1
    outer loop
      vertex 20.01 26.65 4.64999
      vertex -0.00999928 13.35 4.64999
      vertex -0.00999928 26.65 4.64999
    endloop
  endfacet
  facet normal 0 0.939508 0.342527
    outer loop
      vertex 20.01 15.0453 0
      vertex -0.00999928 13.35 4.64999
      vertex 20.01 13.35 4.64999
    endloop
  endfacet
  facet normal 0 0.939508 0.342527
    outer loop
      vertex -0.00999928 13.35 4.64999
      vertex 20.01 15.0453 0
      vertex -0.00999928 15.0453 0
    endloop
  endfacet
  facet normal 1 0 0
    outer loop
      vertex 45.01 29.5 7.5
      vertex 45.01 26.7 4.7
      vertex 45.01 29.5 0
    endloop
  endfacet
  facet normal 1 0 0
    outer loop
      vertex 45.01 29.5 7.5
      vertex 45.01 13.3 4.7
      vertex 45.01 26.7 4.7
    endloop
  endfacet
  facet normal 1 0 -0
    outer loop
      vertex 45.01 13.3 4.7
      vertex 45.01 29.5 7.5
      vertex 45.01 10.5 7.5
    endloop
  endfacet
  facet normal 1 0 0
    outer loop
      vertex 45.01 29.5 0
      vertex 45.01 26.7 4.7
      vertex 45.01 25.0214 0
    endloop
  endfacet
  facet normal 1 0 0
    outer loop
      vertex 45.01 10.5 0
      vertex 45.01 13.3 4.7
      vertex 45.01 10.5 7.5
    endloop
  endfacet
  facet normal 1 0 0
    outer loop
      vertex 45.01 13.3 4.7
      vertex 45.01 10.5 0
      vertex 45.01 14.9786 0
    endloop
  endfacet
  facet normal -0 0 1
    outer loop
      vertex 24.99 29.5 7.5
      vertex 45.01 10.5 7.5
      vertex 45.01 29.5 7.5
    endloop
  endfacet
  facet normal 0 0 1
    outer loop
      vertex 45.01 10.5 7.5
      vertex 24.99 29.5 7.5
      vertex 24.99 10.5 7.5
    endloop
  endfacet
  facet normal 0 0 -1
    outer loop
      vertex 24.99 25.0214 0
      vertex 45.01 29.5 0
      vertex 45.01 25.0214 0
    endloop
  endfacet
  facet normal -0 0 -1
    outer loop
      vertex 45.01 29.5 0
      vertex 24.99 25.0214 0
      vertex 24.99 29.5 0
    endloop
  endfacet
  facet normal 0 0 -1
    outer loop
      vertex 24.99 10.5 0
      vertex 45.01 14.9786 0
      vertex 45.01 10.5 0
    endloop
  endfacet
  facet normal -0 0 -1
    outer loop
      vertex 45.01 14.9786 0
      vertex 24.99 10.5 0
      vertex 24.99 14.9786 0
    endloop
  endfacet
  facet normal -1 0 0
    outer loop
      vertex 24.99 14.9786 0
      vertex 24.99 10.5 0
      vertex 24.99 13.3 4.7
    endloop
  endfacet
  facet normal -1 0 0
    outer loop
      vertex 24.99 29.5 0
      vertex 24.99 26.7 4.7
      vertex 24.99 29.5 7.5
    endloop
  endfacet
  facet normal -1 0 -0
    outer loop
      vertex 24.99 26.7 4.7
      vertex 24.99 29.5 0
      vertex 24.99 25.0214 0
    endloop
  endfacet
  facet normal -1 0 0
    outer loop
      vertex 24.99 13.3 4.7
      vertex 24.99 29.5 7.5
      vertex 24.99 26.7 4.7
    endloop
  endfacet
  facet normal -1 0 0
    outer loop
      vertex 24.99 13.3 4.7
      vertex 24.99 10.5 7.5
      vertex 24.99 29.5 7.5
    endloop
  endfacet
  facet normal -1 0 0
    outer loop
      vertex 24.99 10.5 7.5
      vertex 24.99 13.3 4.7
      vertex 24.99 10.5 0
    endloop
  endfacet
  facet normal 0 1 -0
    outer loop
      vertex 45.01 29.5 0
      vertex 24.99 29.5 7.5
      vertex 45.01 29.5 7.5
    endloop
  endfacet
  facet normal 0 1 0
    outer loop
      vertex 24.99 29.5 7.5
      vertex 45.01 29.5 0
      vertex 24.99 29.5 0
    endloop
  endfacet
  facet normal 0 -1 0
    outer loop
      vertex 24.99 10.5 0
      vertex 45.01 10.5 7.5
      vertex 24.99 10.5 7.5
    endloop
  endfacet
  facet normal 0 -1 -0
    outer loop
      vertex 45.01 10.5 7.5
      vertex 24.99 10.5 0
      vertex 45.01 10.5 0
    endloop
  endfacet
  facet normal 0 -0.94174 0.336341
    outer loop
      vertex 24.99 25.0214 0
      vertex 45.01 26.7 4.7
      vertex 24.99 26.7 4.7
    endloop
  endfacet
  facet normal 0 -0.94174 0.336341
    outer loop
      vertex 45.01 26.7 4.7
      vertex 24.99 25.0214 0
      vertex 45.01 25.0214 0
    endloop
  endfacet
  facet normal 0 0 -1
    outer loop
      vertex 24.99 13.3 4.7
      vertex 45.01 26.7 4.7
      vertex 45.01 13.3 4.7
    endloop
  endfacet
  facet normal -0 0 -1
    outer loop
      vertex 45.01 26.7 4.7
      vertex 24.99 13.3 4.7
      vertex 24.99 26.7 4.7
    endloop
  endfacet
  facet normal 0 0.94174 0.336341
    outer loop
      vertex 45.01 14.9786 0
      vertex 24.99 13.3 4.7
      vertex 45.01 13.3 4.7
    endloop
  endfacet
  facet normal 0 0.94174 0.336341
    outer loop
      vertex 24.99 13.3 4.7
      vertex 45.01 14.9786 0
      vertex 24.99 14.9786 0
    endloop
  endfacet
  facet normal 1 0 0
    outer loop
      vertex 70.01 29.5 7.5
      vertex 70.01 26.75 4.75
      vertex 70.01 29.5 0
    endloop
  endfacet
  facet normal 1 0 0
    outer loop
      vertex 70.01 29.5 7.5
      vertex 70.01 13.25 4.75
      vertex 70.01 26.75 4.75
    endloop
  endfacet
  facet normal 1 0 -0
    outer loop
      vertex 70.01 13.25 4.75
      vertex 70.01 29.5 7.5
      vertex 70.01 10.5 7.5
    endloop
  endfacet
  facet normal 1 0 0
    outer loop
      vertex 70.01 29.5 0
      vertex 70.01 26.75 4.75
      vertex 70.01 25.0875 0
    endloop
  endfacet
  facet normal 1 0 0
    outer loop
      vertex 70.01 10.5 0
      vertex 70.01 13.25 4.75
      vertex 70.01 10.5 7.5
    endloop
  endfacet
  facet normal 1 0 0
    outer loop
      vertex 70.01 13.25 4.75
      vertex 70.01 10.5 0
      vertex 70.01 14.9125 0
    endloop
  endfacet
  facet normal -0 0 1
    outer loop
      vertex 49.99 29.5 7.5
      vertex 70.01 10.5 7.5
      vertex 70.01 29.5 7.5
    endloop
  endfacet
  facet normal 0 0 1
    outer loop
      vertex 70.01 10.5 7.5
      vertex 49.99 29.5 7.5
      vertex 49.99 10.5 7.5
    endloop
  endfacet
  facet normal 0 0 -1
    outer loop
      vertex 49.99 25.0875 0
      vertex 70.01 29.5 0
      vertex 70.01 25.0875 0
    endloop
  endfacet
  facet normal -0 0 -1
    outer loop
      vertex 70.01 29.5 0
      vertex 49.99 25.0875 0
      vertex 49.99 29.5 0
    endloop
  endfacet
  facet normal 0 0 -1
    outer loop
      vertex 49.99 10.5 0
      vertex 70.01 14.9125 0
      vertex 70.01 10.5 0
    endloop
  endfacet
  facet normal -0 0 -1
    outer loop
      vertex 70.01 14.9125 0
      vertex 49.99 10.5 0
      vertex 49.99 14.9125 0
    endloop
  endfacet
  facet normal -1 0 0
    outer loop
      vertex 49.99 14.9125 0
      vertex 49.99 10.5 0
      vertex 49.99 13.25 4.75
    endloop
  endfacet
  facet normal -1 0 0
    outer loop
      vertex 49.99 29.5 0
      vertex 49.99 26.75 4.75
      vertex 49.99 29.5 7.5
    endloop
  endfacet
  facet normal -1 0 -0
    outer loop
      vertex 49.99 26.75 4.75
      vertex 49.99 29.5 0
      vertex 49.99 25.0875 0
    endloop
  endfacet
  facet normal -1 0 0
    outer loop
      vertex 49.99 13.25 4.75
      vertex 49.99 29.5 7.5
      vertex 49.99 26.75 4.75
    endloop
  endfacet
  facet normal -1 0 0
    outer loop
      vertex 49.99 13.25 4.75
      vertex 49.99 10.5 7.5
      vertex 49.99 29.5 7.5
    endloop
  endfacet
  facet normal -1 0 0
    outer loop
      vertex 49.99 10.5 7.5
      vertex 49.99 13.25 4.75
      vertex 49.99 10.5 0
    endloop
  endfacet
  facet normal 0 1 -0
    outer loop
      vertex 70.01 29.5 0
      vertex 49.99 29.5 7.5
      vertex 70.01 29.5 7.5
    endloop
  endfacet
  facet normal 0 1 0
    outer loop
      vertex 49.99 29.5 7.5
      vertex 70.01 29.5 0
      vertex 49.99 29.5 0
    endloop
  endfacet
  facet normal 0 -1 0
    outer loop
      vertex 49.99 10.5 0
      vertex 70.01 10.5 7.5
      vertex 49.99 10.5 7.5
    endloop
  endfacet
  facet normal 0 -1 -0
    outer loop
      vertex 70.01 10.5 7.5
      vertex 49.99 10.5 0
      vertex 70.01 10.5 0
    endloop
  endfacet
  facet normal 0 -0.943858 0.33035
    outer loop
      vertex 49.99 25.0875 0
      vertex 70.01 26.75 4.75
      vertex 49.99 26.75 4.75
    endloop
  endfacet
  facet normal 0 -0.943858 0.33035
    outer loop
      vertex 70.01 26.75 4.75
      vertex 49.99 25.0875 0
      vertex 70.01 25.0875 0
    endloop
  endfacet
  facet normal 0 0 -1
    outer loop
      vertex 49.99 13.25 4.75
      vertex 70.01 26.75 4.75
      vertex 70.01 13.25 4.75
    endloop
  endfacet
  facet normal -0 0 -1
    outer loop
      vertex 70.01 26.75 4.75
      vertex 49.99 13.25 4.75
      vertex 49.99 26.75 4.75
    endloop
  endfacet
  facet normal 0 0.943858 0.33035
    outer loop
      vertex 70.01 14.9125 0
      vertex 49.99 13.25 4.75
      vertex 70.01 13.25 4.75
    endloop
  endfacet
  facet normal 0 0.943858 0.33035
    outer loop
      vertex 49.99 13.25 4.75
      vertex 70.01 14.9125 0
      vertex 49.99 14.9125 0
    endloop
  endfacet
  facet normal 1 0 0
    outer loop
      vertex 95.01 29.5 7.5
      vertex 95.01 26.8 4.79999
      vertex 95.01 29.5 0
    endloop
  endfacet
  facet normal 1 0 0
    outer loop
      vertex 95.01 29.5 7.5
      vertex 95.01 13.2 4.79999
      vertex 95.01 26.8 4.79999
    endloop
  endfacet
  facet normal 1 0 -0
    outer loop
      vertex 95.01 13.2 4.79999
      vertex 95.01 29.5 7.5
      vertex 95.01 10.5 7.5
    endloop
  endfacet
  facet normal 1 0 0
    outer loop
      vertex 95.01 29.5 0
      vertex 95.01 26.8 4.79999
      vertex 95.01 25.1529 0
    endloop
  endfacet
  facet normal 1 0 0
    outer loop
      vertex 95.01 10.5 0
      vertex 95.01 13.2 4.79999
      vertex 95.01 10.5 7.5
    endloop
  endfacet
  facet normal 1 0 0
    outer loop
      vertex 95.01 13.2 4.79999
      vertex 95.01 10.5 0
      vertex 95.01 14.8471 0
    endloop
  endfacet
  facet normal -0 0 1
    outer loop
      vertex 74.99 29.5 7.5
      vertex 95.01 10.5 7.5
      vertex 95.01 29.5 7.5
    endloop
  endfacet
  facet normal 0 0 1
    outer loop
      vertex 95.01 10.5 7.5
      vertex 74.99 29.5 7.5
      vertex 74.99 10.5 7.5
    endloop
  endfacet
  facet normal 0 0 -1
    outer loop
      vertex 74.99 25.1529 0
      vertex 95.01 29.5 0
      vertex 95.01 25.1529 0
    endloop
  endfacet
  facet normal -0 0 -1
    outer loop
      vertex 95.01 29.5 0
      vertex 74.99 25.1529 0
      vertex 74.99 29.5 0
    endloop
  endfacet
  facet normal 0 0 -1
    outer loop
      vertex 74.99 10.5 0
      vertex 95.01 14.8471 0
      vertex 95.01 10.5 0
    endloop
  endfacet
  facet normal -0 0 -1
    outer loop
      vertex 95.01 14.8471 0
      vertex 74.99 10.5 0
      vertex 74.99 14.8471 0
    endloop
  endfacet
  facet normal -1 0 0
    outer loop
      vertex 74.99 14.8471 0
      vertex 74.99 10.5 0
      vertex 74.99 13.2 4.79999
    endloop
  endfacet
  facet normal -1 0 0
    outer loop
      vertex 74.99 29.5 0
      vertex 74.99 26.8 4.79999
      vertex 74.99 29.5 7.5
    endloop
  endfacet
  facet normal -1 0 -0
    outer loop
      vertex 74.99 26.8 4.79999
      vertex 74.99 29.5 0
      vertex 74.99 25.1529 0
    endloop
  endfacet
  facet normal -1 0 0
    outer loop
      vertex 74.99 13.2 4.79999
      vertex 74.99 29.5 7.5
      vertex 74.99 26.8 4.79999
    endloop
  endfacet
  facet normal -1 0 0
    outer loop
      vertex 74.99 13.2 4.79999
      vertex 74.99 10.5 7.5
      vertex 74.99 29.5 7.5
    endloop
  endfacet
  facet normal -1 0 0
    outer loop
      vertex 74.99 10.5 7.5
      vertex 74.99 13.2 4.79999
      vertex 74.99 10.5 0
    endloop
  endfacet
  facet normal 0 1 -0
    outer loop
      vertex 95.01 29.5 0
      vertex 74.99 29.5 7.5
      vertex 95.01 29.5 7.5
    endloop
  endfacet
  facet normal 0 1 0
    outer loop
      vertex 74.99 29.5 7.5
      vertex 95.01 29.5 0
      vertex 74.99 29.5 0
    endloop
  endfacet
  facet normal 0 -1 0
    outer loop
      vertex 74.99 10.5 0
      vertex 95.01 10.5 7.5
      vertex 74.99 10.5 7.5
    endloop
  endfacet
  facet normal 0 -1 -0
    outer loop
      vertex 95.01 10.5 7.5
      vertex 74.99 10.5 0
      vertex 95.01 10.5 0
    endloop
  endfacet
  facet normal 0 -0.945862 0.324569
    outer loop
      vertex 74.99 25.1529 0
      vertex 95.01 26.8 4.79999
      vertex 74.99 26.8 4.79999
    endloop
  endfacet
  facet normal 0 -0.945862 0.324569
    outer loop
      vertex 95.01 26.8 4.79999
      vertex 74.99 25.1529 0
      vertex 95.01 25.1529 0
    endloop
  endfacet
  facet normal 0 0 -1
    outer loop
      vertex 74.99 13.2 4.79999
      vertex 95.01 26.8 4.79999
      vertex 95.01 13.2 4.79999
    endloop
  endfacet
  facet normal -0 0 -1
    outer loop
      vertex 95.01 26.8 4.79999
      vertex 74.99 13.2 4.79999
      vertex 74.99 26.8 4.79999
    endloop
  endfacet
  facet normal 0 0.945862 0.324569
    outer loop
      vertex 95.01 14.8471 0
      vertex 74.99 13.2 4.79999
      vertex 95.01 13.2 4.79999
    endloop
  endfacet
  facet normal 0 0.945862 0.324569
    outer loop
      vertex 74.99 13.2 4.79999
      vertex 95.01 14.8471 0
      vertex 74.99 14.8471 0
    endloop
  endfacet
  facet normal 1 0 0
    outer loop
      vertex 120.01 29.5 7.5
      vertex 120.01 26.85 4.84999
      vertex 120.01 29.5 0
    endloop
  endfacet
  facet normal 1 0 0
    outer loop
      vertex 120.01 29.5 7.5
      vertex 120.01 13.15 4.84999
      vertex 120.01 26.85 4.84999
    endloop
  endfacet
  facet normal 1 0 -0
    outer loop
      vertex 120.01 13.15 4.84999
      vertex 120.01 29.5 7.5
      vertex 120.01 10.5 7.5
    endloop
  endfacet
  facet normal 1 0 0
    outer loop
      vertex 120.01 29.5 0
      vertex 120.01 26.85 4.84999
      vertex 120.01 25.2178 0
    endloop
  endfacet
  facet normal 1 0 0
    outer loop
      vertex 120.01 10.5 0
      vertex 120.01 13.15 4.84999
      vertex 120.01 10.5 7.5
    endloop
  endfacet
  facet normal 1 0 0
    outer loop
      vertex 120.01 13.15 4.84999
      vertex 120.01 10.5 0
      vertex 120.01 14.7822 0
    endloop
  endfacet
  facet normal -0 0 1
    outer loop
      vertex 99.99 29.5 7.5
      vertex 120.01 10.5 7.5
      vertex 120.01 29.5 7.5
    endloop
  endfacet
  facet normal 0 0 1
    outer loop
      vertex 120.01 10.5 7.5
      vertex 99.99 29.5 7.5
      vertex 99.99 10.5 7.5
    endloop
  endfacet
  facet normal 0 0 -1
    outer loop
      vertex 99.99 25.2178 0
      vertex 120.01 29.5 0
      vertex 120.01 25.2178 0
    endloop
  endfacet
  facet normal -0 0 -1
    outer loop
      vertex 120.01 29.5 0
      vertex 99.99 25.2178 0
      vertex 99.99 29.5 0
    endloop
  endfacet
  facet normal 0 0 -1
    outer loop
      vertex 99.99 10.5 0
      vertex 120.01 14.7822 0
      vertex 120.01 10.5 0
    endloop
  endfacet
  facet normal -0 0 -1
    outer loop
      vertex 120.01 14.7822 0
      vertex 99.99 10.5 0
      vertex 99.99 14.7822 0
    endloop
  endfacet
  facet normal -1 0 0
    outer loop
      vertex 99.99 14.7822 0
      vertex 99.99 10.5 0
      vertex 99.99 13.15 4.84999
    endloop
  endfacet
  facet normal -1 0 0
    outer loop
      vertex 99.99 29.5 0
      vertex 99.99 26.85 4.84999
      vertex 99.99 29.5 7.5
    endloop
  endfacet
  facet normal -1 0 -0
    outer loop
      vertex 99.99 26.85 4.84999
      vertex 99.99 29.5 0
      vertex 99.99 25.2178 0
    endloop
  endfacet
  facet normal -1 0 0
    outer loop
      vertex 99.99 13.15 4.84999
      vertex 99.99 29.5 7.5
      vertex 99.99 26.85 4.84999
    endloop
  endfacet
  facet normal -1 0 0
    outer loop
      vertex 99.99 13.15 4.84999
      vertex 99.99 10.5 7.5
      vertex 99.99 29.5 7.5
    endloop
  endfacet
  facet normal -1 0 0
    outer loop
      vertex 99.99 10.5 7.5
      vertex 99.99 13.15 4.84999
      vertex 99.99 10.5 0
    endloop
  endfacet
  facet normal 0 1 -0
    outer loop
      vertex 120.01 29.5 0
      vertex 99.99 29.5 7.5
      vertex 120.01 29.5 7.5
    endloop
  endfacet
  facet normal 0 1 0
    outer loop
      vertex 99.99 29.5 7.5
      vertex 120.01 29.5 0
      vertex 99.99 29.5 0
    endloop
  endfacet
  facet normal 0 -1 0
    outer loop
      vertex 99.99 10.5 0
      vertex 120.01 10.5 7.5
      vertex 99.99 10.5 7.5
    endloop
  endfacet
  facet normal 0 -1 -0
    outer loop
      vertex 120.01 10.5 7.5
      vertex 99.99 10.5 0
      vertex 120.01 10.5 0
    endloop
  endfacet
  facet normal 0 -0.947769 0.318959
    outer loop
      vertex 99.99 25.2178 0
      vertex 120.01 26.85 4.84999
      vertex 99.99 26.85 4.84999
    endloop
  endfacet
  facet normal 0 -0.947769 0.318959
    outer loop
      vertex 120.01 26.85 4.84999
      vertex 99.99 25.2178 0
      vertex 120.01 25.2178 0
    endloop
  endfacet
  facet normal 0 0 -1
    outer loop
      vertex 99.99 13.15 4.84999
      vertex 120.01 26.85 4.84999
      vertex 120.01 13.15 4.84999
    endloop
  endfacet
  facet normal -0 0 -1
    outer loop
      vertex 120.01 26.85 4.84999
      vertex 99.99 13.15 4.84999
      vertex 99.99 26.85 4.84999
    endloop
  endfacet
  facet normal 0 0.947769 0.318959
    outer loop
      vertex 120.01 14.7822 0
      vertex 99.99 13.15 4.84999
      vertex 120.01 13.15 4.84999
    endloop
  endfacet
  facet normal 0 0.947769 0.318959
    outer loop
      vertex 99.99 13.15 4.84999
      vertex 120.01 14.7822 0
      vertex 99.99 14.7822 0
    endloop
  endfacet
  facet normal 0 0.932005 -0.362446
    outer loop
      vertex 20 4.75 0
      vertex 0 6.5 4.5
      vertex 20 6.5 4.5
    endloop
  endfacet
  facet normal 0 0.932005 -0.362446
    outer loop
      vertex 0 6.5 4.5
      vertex 20 4.75 0
      vertex 0 4.75 0
    endloop
  endfacet
  facet normal -1 0 0
    outer loop
      vertex 0 -4.75 0
      vertex 0 6.5 4.5
      vertex 0 4.75 0
    endloop
  endfacet
  facet normal -1 -0 0
    outer loop
      vertex 0 6.5 4.5
      vertex 0 -4.75 0
      vertex 0 -6.5 4.5
    endloop
  endfacet
  facet normal 0 0 -1
    outer loop
      vertex 0 -4.75 0
      vertex 20 4.75 0
      vertex 20 -4.75 0
    endloop
  endfacet
  facet normal -0 0 -1
    outer loop
      vertex 20 4.75 0
      vertex 0 -4.75 0
      vertex 0 4.75 0
    endloop
  endfacet
  facet normal -0 0 1
    outer loop
      vertex 0 6.5 4.5
      vertex 20 -6.5 4.5
      vertex 20 6.5 4.5
    endloop
  endfacet
  facet normal 0 0 1
    outer loop
      vertex 20 -6.5 4.5
      vertex 0 6.5 4.5
      vertex 0 -6.5 4.5
    endloop
  endfacet
  facet normal 1 0 0
    outer loop
      vertex 20 6.5 4.5
      vertex 20 -4.75 0
      vertex 20 4.75 0
    endloop
  endfacet
  facet normal 1 0 -0
    outer loop
      vertex 20 -4.75 0
      vertex 20 6.5 4.5
      vertex 20 -6.5 4.5
    endloop
  endfacet
  facet normal 0 -0.932005 -0.362446
    outer loop
      vertex 0 -4.75 0
      vertex 20 -6.5 4.5
      vertex 0 -6.5 4.5
    endloop
  endfacet
  facet normal 0 -0.932005 -0.362446
    outer loop
      vertex 20 -6.5 4.5
      vertex 0 -4.75 0
      vertex 20 -4.75 0
    endloop
  endfacet
  facet normal 0 0.932005 -0.362446
    outer loop
      vertex 45 4.75 0
      vertex 25 6.5 4.5
      vertex 45 6.5 4.5
    endloop
  endfacet
  facet normal 0 0.932005 -0.362446
    outer loop
      vertex 25 6.5 4.5
      vertex 45 4.75 0
      vertex 25 4.75 0
    endloop
  endfacet
  facet normal -1 0 0
    outer loop
      vertex 25 -4.75 0
      vertex 25 6.5 4.5
      vertex 25 4.75 0
    endloop
  endfacet
  facet normal -1 -0 0
    outer loop
      vertex 25 6.5 4.5
      vertex 25 -4.75 0
      vertex 25 -6.5 4.5
    endloop
  endfacet
  facet normal 0 0 -1
    outer loop
      vertex 25 -4.75 0
      vertex 45 4.75 0
      vertex 45 -4.75 0
    endloop
  endfacet
  facet normal -0 0 -1
    outer loop
      vertex 45 4.75 0
      vertex 25 -4.75 0
      vertex 25 4.75 0
    endloop
  endfacet
  facet normal -0 0 1
    outer loop
      vertex 25 6.5 4.5
      vertex 45 -6.5 4.5
      vertex 45 6.5 4.5
    endloop
  endfacet
  facet normal 0 0 1
    outer loop
      vertex 45 -6.5 4.5
      vertex 25 6.5 4.5
      vertex 25 -6.5 4.5
    endloop
  endfacet
  facet normal 1 0 0
    outer loop
      vertex 45 6.5 4.5
      vertex 45 -4.75 0
      vertex 45 4.75 0
    endloop
  endfacet
  facet normal 1 0 -0
    outer loop
      vertex 45 -4.75 0
      vertex 45 6.5 4.5
      vertex 45 -6.5 4.5
    endloop
  endfacet
  facet normal 0 -0.932005 -0.362446
    outer loop
      vertex 25 -4.75 0
      vertex 45 -6.5 4.5
      vertex 25 -6.5 4.5
    endloop
  endfacet
  facet normal 0 -0.932005 -0.362446
    outer loop
      vertex 45 -6.5 4.5
      vertex 25 -4.75 0
      vertex 45 -4.75 0
    endloop
  endfacet
  facet normal 0 0.932005 -0.362446
    outer loop
      vertex 70 4.75 0
      vertex 50 6.5 4.5
      vertex 70 6.5 4.5
    endloop
  endfacet
  facet normal 0 0.932005 -0.362446
    outer loop
      vertex 50 6.5 4.5
      vertex 70 4.75 0
      vertex 50 4.75 0
    endloop
  endfacet
  facet normal -1 0 0
    outer loop
      vertex 50 -4.75 0
      vertex 50 6.5 4.5
      vertex 50 4.75 0
    endloop
  endfacet
  facet normal -1 -0 0
    outer loop
      vertex 50 6.5 4.5
      vertex 50 -4.75 0
      vertex 50 -6.5 4.5
    endloop
  endfacet
  facet normal 0 0 -1
    outer loop
      vertex 50 -4.75 0
      vertex 70 4.75 0
      vertex 70 -4.75 0
    endloop
  endfacet
  facet normal -0 0 -1
    outer loop
      vertex 70 4.75 0
      vertex 50 -4.75 0
      vertex 50 4.75 0
    endloop
  endfacet
  facet normal -0 0 1
    outer loop
      vertex 50 6.5 4.5
      vertex 70 -6.5 4.5
      vertex 70 6.5 4.5
    endloop
  endfacet
  facet normal 0 0 1
    outer loop
      vertex 70 -6.5 4.5
      vertex 50 6.5 4.5
      vertex 50 -6.5 4.5
    endloop
  endfacet
  facet normal 1 0 0
    outer loop
      vertex 70 6.5 4.5
      vertex 70 -4.75 0
      vertex 70 4.75 0
    endloop
  endfacet
  facet normal 1 0 -0
    outer loop
      vertex 70 -4.75 0
      vertex 70 6.5 4.5
      vertex 70 -6.5 4.5
    endloop
  endfacet
  facet normal 0 -0.932005 -0.362446
    outer loop
      vertex 50 -4.75 0
      vertex 70 -6.5 4.5
      vertex 50 -6.5 4.5
    endloop
  endfacet
  facet normal 0 -0.932005 -0.362446
    outer loop
      vertex 70 -6.5 4.5
      vertex 50 -4.75 0
      vertex 70 -4.75 0
    endloop
  endfacet
  facet normal 0 0.932005 -0.362446
    outer loop
      vertex 95 4.75 0
      vertex 75 6.5 4.5
      vertex 95 6.5 4.5
    endloop
  endfacet
  facet normal 0 0.932005 -0.362446
    outer loop
      vertex 75 6.5 4.5
      vertex 95 4.75 0
      vertex 75 4.75 0
    endloop
  endfacet
  facet normal -1 0 0
    outer loop
      vertex 75 -4.75 0
      vertex 75 6.5 4.5
      vertex 75 4.75 0
    endloop
  endfacet
  facet normal -1 -0 0
    outer loop
      vertex 75 6.5 4.5
      vertex 75 -4.75 0
      vertex 75 -6.5 4.5
    endloop
  endfacet
  facet normal 0 0 -1
    outer loop
      vertex 75 -4.75 0
      vertex 95 4.75 0
      vertex 95 -4.75 0
    endloop
  endfacet
  facet normal -0 0 -1
    outer loop
      vertex 95 4.75 0
      vertex 75 -4.75 0
      vertex 75 4.75 0
    endloop
  endfacet
  facet normal -0 0 1
    outer loop
      vertex 75 6.5 4.5
      vertex 95 -6.5 4.5
      vertex 95 6.5 4.5
    endloop
  endfacet
  facet normal 0 0 1
    outer loop
      vertex 95 -6.5 4.5
      vertex 75 6.5 4.5
      vertex 75 -6.5 4.5
    endloop
  endfacet
  facet normal 1 0 0
    outer loop
      vertex 95 6.5 4.5
      vertex 95 -4.75 0
      vertex 95 4.75 0
    endloop
  endfacet
  facet normal 1 0 -0
    outer loop
      vertex 95 -4.75 0
      vertex 95 6.5 4.5
      vertex 95 -6.5 4.5
    endloop
  endfacet
  facet normal 0 -0.932005 -0.362446
    outer loop
      vertex 75 -4.75 0
      vertex 95 -6.5 4.5
      vertex 75 -6.5 4.5
    endloop
  endfacet
  facet normal 0 -0.932005 -0.362446
    outer loop
      vertex 95 -6.5 4.5
      vertex 75 -4.75 0
      vertex 95 -4.75 0
    endloop
  endfacet
  facet normal 0 0.932005 -0.362446
    outer loop
      vertex 120 4.75 0
      vertex 100 6.5 4.5
      vertex 120 6.5 4.5
    endloop
  endfacet
  facet normal 0 0.932005 -0.362446
    outer loop
      vertex 100 6.5 4.5
      vertex 120 4.75 0
      vertex 100 4.75 0
    endloop
  endfacet
  facet normal -1 0 0
    outer loop
      vertex 100 -4.75 0
      vertex 100 6.5 4.5
      vertex 100 4.75 0
    endloop
  endfacet
  facet normal -1 -0 0
    outer loop
      vertex 100 6.5 4.5
      vertex 100 -4.75 0
      vertex 100 -6.5 4.5
    endloop
  endfacet
  facet normal 0 0 -1
    outer loop
      vertex 100 -4.75 0
      vertex 120 4.75 0
      vertex 120 -4.75 0
    endloop
  endfacet
  facet normal -0 0 -1
    outer loop
      vertex 120 4.75 0
      vertex 100 -4.75 0
      vertex 100 4.75 0
    endloop
  endfacet
  facet normal -0 0 1
    outer loop
      vertex 100 6.5 4.5
      vertex 120 -6.5 4.5
      vertex 120 6.5 4.5
    endloop
  endfacet
  facet normal 0 0 1
    outer loop
      vertex 120 -6.5 4.5
      vertex 100 6.5 4.5
      vertex 100 -6.5 4.5
    endloop
  endfacet
  facet normal 1 0 0
    outer loop
      vertex 120 6.5 4.5
      vertex 120 -4.75 0
      vertex 120 4.75 0
    endloop
  endfacet
  facet normal 1 0 -0
    outer loop
      vertex 120 -4.75 0
      vertex 120 6.5 4.5
      vertex 120 -6.5 4.5
    endloop
  endfacet
  facet normal 0 -0.932005 -0.362446
    outer loop
      vertex 100 -4.75 0
      vertex 120 -6.5 4.5
      vertex 100 -6.5 4.5
    endloop
  endfacet
  facet normal 0 -0.932005 -0.362446
    outer loop
      vertex 120 -6.5 4.5
      vertex 100 -4.75 0
      vertex 120 -4.75 0
    endloop
  endfacet
endsolid OpenSCAD_Model
